<svg width="232" height="41" viewBox="0 0 232 41" fill="none" xmlns="http://www.w3.org/2000/svg">
<path d="M52.1769 26.0813L51.4966 26.7752C51.3741 25.8228 51.7959 24.748 50.8027 24.0541C50.8027 23.8364 50.8027 23.6052 50.8027 23.3875C50.3537 22.6664 49.8911 22.6664 49.4422 23.3875C49.4422 23.6052 49.4422 23.8364 49.4422 24.0541C49.2129 24.1955 49.0269 24.3972 48.9046 24.6372C48.7822 24.8771 48.7281 25.1461 48.7483 25.4147L48.068 26.0949C48.068 26.3262 48.068 26.5575 48.068 26.7752L47.4014 27.4691L46.7211 28.1494H45.3605V27.4691L46.0272 26.7752C46.0272 26.5575 46.0272 26.3262 46.0272 26.1086C47.2245 26.1086 47.0612 25.4691 46.7075 24.748C47.0748 24.68 47.6462 24.748 47.5918 24.1902C47.5374 23.6324 47.1156 23.5643 46.6939 23.4283H46C45.2517 23.4283 44.449 23.2786 43.9592 24.0813L43.2653 24.7616L42.5578 25.4419C42.3358 25.4283 42.1132 25.4283 41.8911 25.4419L41.1973 26.1086L39.8367 26.8296H39.1837C38.1905 26.8296 37.1701 26.8296 37.0884 25.4691C37.3061 25.4691 37.5374 25.4691 37.7551 25.4691C38.4354 25.4691 39.2653 25.3603 39.3197 24.5575C39.3877 23.4419 38.3809 23.4691 37.6326 23.4555C35.619 23.4555 33.551 23.4555 31.5918 23.4555C32.2585 22.4895 33.551 22.7072 34.3129 22.0949C36.8299 23.333 39.6735 22.3398 42.2585 23.2378C42.9388 23.4827 43.619 22.9657 44.136 22.6528C44.653 22.3398 45.102 22.0269 44.8979 21.2922C44.6939 20.5575 44.2177 20.748 43.7823 20.7344C41.7687 20.7344 39.7007 20.7344 37.7143 20.6664V20.0405C38.9252 18.3262 37.3061 17.6324 36.3537 17.4963C34.3265 17.197 32.1497 16.6936 30.1769 17.9725C29.7007 18.1902 29.7143 18.4215 30.1769 18.6528L29.483 19.3467L28.7891 18.6664C28.7891 17.7548 28.3537 17.1426 27.3469 17.4011C26.3401 17.6596 26.0952 17.5099 26.0544 16.5984C28.5972 16.0215 31.2037 15.7746 33.8095 15.8637C34.3809 15.8637 35.0476 15.6732 35.1701 15.0201C35.2653 14.1222 34.4898 13.8909 33.8095 13.9045C29.6326 14.0269 25.4014 13.3058 21.2789 14.5303C21.0476 14.0677 20.8299 13.6052 20.5986 13.1698V12.4895C20.8688 12.5233 21.1429 12.4752 21.3855 12.3515C21.628 12.2278 21.8279 12.0341 21.9592 11.7956C21.9592 11.5779 21.9592 11.3467 21.9592 11.1154H22.6258C22.7483 11.4227 22.9321 11.7018 23.1661 11.9357C23.4 12.1696 23.6791 12.3534 23.9864 12.4759C25.9184 13.7684 28.068 12.9249 30.1497 13.1154C30.7755 13.1154 31.6735 13.1154 31.6599 12.2582C31.6462 11.4011 30.7347 11.4283 30.1769 11.1018C30.1769 10.6392 29.4014 10.1766 30.1769 9.74121H30.8435H31.5238L32.2177 10.4079H32.8843L33.5918 11.0745H34.2721L34.966 11.7548L35.6462 12.4487L36.3401 13.1426L37.0204 13.8364L37.7007 14.5303L38.3945 15.2106C38.3728 15.4794 38.4262 15.7489 38.5487 15.9892C38.6713 16.2294 38.8581 16.4309 39.0884 16.5711L39.7823 17.2514L40.4626 17.9045H41.1565C41.2916 18.138 41.4931 18.326 41.7353 18.4447C41.9776 18.5634 42.2497 18.6074 42.517 18.5711H44.585C45.034 19.2378 45.483 19.2922 45.9456 18.5711C45.9456 18.3398 45.9456 18.1086 45.9456 17.8773C45.9456 17.4283 45.9456 16.9657 45.9456 16.5167H48C48 16.7344 48 16.9657 48 17.197L48.6667 17.8909C48.6667 18.1222 48.6667 18.3398 48.6667 18.5711L49.3333 19.265L50.0272 19.9317C51.034 19.2106 50.5986 18.1358 50.6939 17.2106H52.0544C52.8571 17.714 52.7211 18.5711 52.7619 19.2922C52.9796 19.5235 53.1973 19.7548 53.4286 19.9725H62.449C63.1837 20.9657 64.2449 20.5575 65.1701 20.6392H71.3469C72.2993 20.5575 73.3741 20.9657 74.068 19.9725H76.7891C77.6054 21.0065 76.1224 21.333 76.1224 22.0269H72.0408L71.3333 22.6936H69.9728C69.4558 21.9045 68.6122 22.0405 67.9047 22.0405H61.7823C60.8365 21.5114 59.7708 21.2336 58.6871 21.2336C57.6033 21.2336 56.5377 21.5114 55.5918 22.0405H54.2313L53.551 22.7072L52.8707 23.4011C52.8707 23.8501 52.8707 24.3126 52.8707 24.7616C52.6392 24.8902 52.4502 25.0835 52.3269 25.318C52.2037 25.5524 52.1515 25.8177 52.1769 26.0813Z" fill="black"/>
<path d="M193.51 15.7963C193.51 15.5786 193.51 15.3473 193.51 15.1296C193.818 15.0078 194.097 14.8243 194.331 14.5903C194.565 14.3563 194.749 14.0768 194.871 13.7691L195.565 13.0752C195.782 12.8439 196.014 12.6262 196.245 12.3949L196.925 11.701L197.633 11.0208H198.313L199.007 10.3541H199.673L200.381 9.67383H201.741C202.517 10.1228 201.809 10.5854 201.741 11.0344C201.088 11.4289 200.258 11.5786 199.891 12.9527C202.612 12.9527 205.333 13.7691 207.932 12.4221C208.547 12.0234 209.255 11.7891 209.986 11.7419V12.4357C209.66 12.5446 209.592 12.6534 209.823 12.7078C210.054 12.7623 209.932 12.531 209.986 12.4357H211.347V13.116L210.653 14.4765H209.973L209.265 13.8371C207.578 13.8371 205.891 13.8371 204.204 13.8371C202.177 13.8371 200.122 13.8371 198.136 13.8371C197.469 13.8371 196.707 14.0412 196.775 14.9255C196.775 15.565 197.469 15.7691 198.041 15.7963C199.497 15.7963 200.966 15.7963 202.422 15.7963C202.925 16.5854 203.782 16.4493 204.49 16.4629H205.85C205.85 17.3745 205.374 17.4834 204.558 17.2657C203.741 17.048 203.197 17.6058 203.116 18.531C202.884 18.7487 202.653 18.9799 202.435 19.2112L201.728 18.5038C201.823 18.5038 201.946 18.4085 202 18.3133C202.054 18.218 202 17.9323 201.728 17.8371C199.769 16.5582 197.646 17.0616 195.551 17.3609C194.599 17.497 192.966 18.1772 194.19 19.9051C194.19 20.1228 194.19 20.3269 194.19 20.531C191.755 20.7895 189.184 19.7146 186.871 21.1432C187.034 22.5038 188.816 22.6398 188.68 24.014C187.646 24.014 186.775 23.184 185.701 23.3881C184.626 23.5922 184.503 23.9459 185.252 24.7487C184.707 25.6874 184.843 26.4085 185.946 26.8031L186.626 27.497C186.612 27.719 186.612 27.9416 186.626 28.1636L185.932 28.8575H185.265C185.298 28.5859 185.248 28.3108 185.121 28.0681C184.995 27.8253 184.799 27.6263 184.558 27.497L183.877 26.8031C183.912 26.5343 183.866 26.2613 183.745 26.0189C183.624 25.7765 183.433 25.5758 183.197 25.4425C183.22 25.1751 183.169 24.9065 183.049 24.6663C182.929 24.4262 182.745 24.224 182.517 24.082C182.517 23.8643 182.517 23.633 182.517 23.4153L181.85 22.7351L181.156 23.4017C180.027 24.3677 180.639 25.6874 180.463 26.8439L179.782 26.15C179.817 25.8813 179.771 25.6082 179.65 25.3658C179.529 25.1234 179.338 24.9227 179.102 24.7895C179.102 24.0276 179.238 23.2248 178.435 22.7214L177.741 22.0548H175.701C174.867 21.5534 173.912 21.2885 172.939 21.2885C171.966 21.2885 171.011 21.5534 170.177 22.0548H164.014C163.061 22.1228 162 21.7282 161.292 22.7078H160.639L159.932 22.0412H155.85C155.401 21.1296 154.952 20.218 154.49 19.3201H155.85L156.544 19.9731H157.905C160.082 21.3337 162.49 20.3541 164.707 20.6398H166.068C167.224 20.4902 168.531 21.1024 169.497 19.9731H178.422C179.224 19.497 179.061 18.6942 179.075 17.9459C179.32 17.701 179.565 17.4697 179.796 17.2248L180.449 17.4017C181.619 17.7282 180.639 19.6874 182 19.6466C183.36 19.6058 183.292 18.2861 183.837 17.4153C184.19 16.8983 184.599 16.5446 185.197 16.7078C185.796 16.8711 185.701 17.3065 185.714 17.7827C185.714 19.9323 186.993 19.0344 188.014 18.6126H188.707C188.975 18.6489 189.247 18.6049 189.489 18.4862C189.731 18.3675 189.933 18.1794 190.068 17.9459H191.429L192.095 17.2929L192.789 16.6126L193.51 15.7963Z" fill="black"/>
<path d="M225.088 35.6868H225.85C225.85 35.9045 225.85 36.1222 225.85 36.3398C224.939 37.0473 224.027 36.3398 223.129 36.3398C221.769 34.1085 219.728 35.1562 217.905 35.1017C217.791 35.1082 217.679 35.1382 217.577 35.1899C217.475 35.2415 217.385 35.3136 217.312 35.4018C217.239 35.4899 217.185 35.5921 217.154 35.7021C217.122 35.812 217.114 35.9272 217.129 36.0405C217.129 36.2704 217.218 36.4913 217.379 36.6564C217.539 36.8215 217.757 36.9178 217.986 36.9249C219.687 36.9249 221.388 36.9249 223.088 37.0065C223.714 38.0133 223.959 39.3058 225.211 39.8228C225.211 40.0269 225.211 40.2446 225.211 40.4623H219.769L219.061 39.7956C218.928 39.5596 218.727 39.3688 218.485 39.2476C218.242 39.1264 217.969 39.0803 217.701 39.1154L217.007 38.4215L216.326 37.7412C216.109 37.5099 215.877 37.2786 215.646 37.0609C214.762 36.0813 215.388 34.5031 214.286 33.6188C214.286 32.4759 214.286 31.3466 214.286 30.2038C214.286 29.9725 214.286 29.7412 214.286 29.5099C215.075 28.0238 215.539 26.3865 215.646 24.7072C216.544 23.5915 217.945 23.3466 219.102 22.6392C219.879 23.0597 220.734 23.3154 221.614 23.3903C222.495 23.4652 223.381 23.3577 224.218 23.0745C225.415 22.7208 226.122 22.9385 226.626 24.0133L225.946 24.7072L225.252 25.3875L224.571 26.0813L223.891 26.7752C223.914 27.0442 223.862 27.3143 223.739 27.5549C223.616 27.7954 223.429 27.9967 223.197 28.1358C222.672 28.8236 222.387 29.6649 222.387 30.5303C222.387 31.3957 222.672 32.2371 223.197 32.9249C222.98 34.4215 223.306 35.5915 225.088 35.6868ZM219.252 33.646C220.027 33.5099 221.156 33.9589 221.265 32.9249C221.374 31.8909 220.286 31.646 219.374 31.5643C218.816 31.5187 218.254 31.5415 217.701 31.6324C217.143 31.7276 216.585 31.9997 216.667 32.6936C216.748 33.3875 217.197 33.4147 217.646 33.4963C218.178 33.5783 218.714 33.6282 219.252 33.646ZM221.374 25.6188C221.374 25.0337 220.993 24.816 220.531 24.7752C219.701 24.6936 218.884 24.8432 218.585 25.7276C218.286 26.6119 218.939 26.6936 219.551 26.7208C219.937 26.7917 220.336 26.7188 220.672 26.5157C221.008 26.3127 221.257 25.9936 221.374 25.6188ZM216.49 29.4555C218.408 30.3398 219.51 30.4895 220.871 29.5507C219.048 28.9113 219.048 28.9113 216.49 29.4555ZM222.054 38.2854C221.96 38.0975 221.798 37.9523 221.601 37.8791C221.405 37.8059 221.187 37.8101 220.993 37.8909C220.721 37.9725 220.653 38.163 220.803 38.4079C220.844 38.504 220.904 38.5909 220.979 38.6636C221.055 38.7363 221.144 38.7932 221.241 38.8312C221.339 38.8692 221.443 38.8874 221.547 38.8848C221.652 38.8822 221.755 38.8588 221.85 38.816C221.973 38.7616 221.986 38.4623 222.054 38.2854Z" fill="black"/>
<path d="M215.469 8.93892V8.24504C215.701 8.02736 215.932 7.79606 216.15 7.56477L216.816 6.87089C217.048 6.65321 217.265 6.43552 217.483 6.20423C217.701 5.97294 217.959 5.74164 218.19 5.49674L218.871 4.83008L219.565 4.16341H220.259L220.925 3.49674H221.633L222.313 2.83008H227.211L227.905 3.49674H228.585C228.819 3.99712 229.215 4.40381 229.709 4.65079C230.203 4.89777 230.766 4.97054 231.306 4.85729L232 5.55117V6.81647L231.306 7.51035H230.626L229.932 6.81647C229.238 5.68722 228.476 4.83008 227.211 6.1362L226.531 6.81647L225.837 7.52396L225.143 8.19062C223.687 8.47634 223.347 9.11579 224.463 10.2586V11.6192C223.592 12.3131 223.578 12.9797 224.463 13.6872L225.143 14.3811L225.837 15.0886C225.837 15.524 225.837 15.9729 225.837 16.4491C225.391 16.4025 224.957 16.2733 224.558 16.0682C222.966 14.7076 220.884 15.1022 219.116 14.5035C218.924 14.4274 218.718 14.3957 218.512 14.4108C218.307 14.426 218.107 14.4877 217.929 14.5912C217.751 14.6947 217.599 14.8374 217.484 15.0084C217.369 15.1794 217.294 15.3743 217.265 15.5784C217.061 16.5852 217.837 16.9389 218.626 17.1022C218.966 17.1229 219.306 17.1229 219.646 17.1022C218.286 19.3471 216.925 17.2655 215.565 17.1022C214.816 15.5784 215.32 13.7008 214.204 12.2859V11.6872C214.438 11.5521 214.626 11.3506 214.744 11.1083C214.863 10.8661 214.907 10.594 214.871 10.3267C214.871 10.0954 214.871 9.86409 214.871 9.6328L215.469 8.93892ZM217.102 12.5172C218.282 13.3762 219.728 13.7906 221.184 13.6872C221.796 13.6192 222.272 13.3199 222.245 12.6532C222.245 12.4246 222.155 12.2052 221.995 12.0423C221.834 11.8793 221.616 11.786 221.388 11.7825C220.027 11.728 218.667 11.3199 217.102 12.5172ZM219.551 8.24504C218.884 8.24504 217.986 8.09538 217.891 8.97974C217.796 9.86409 218.68 10.2042 219.497 10.245C220.313 10.2859 221.279 10.041 221.306 9.15661C221.347 8.00014 220.231 8.36749 219.551 8.24504ZM224.122 5.33348C223.701 4.73484 223.048 4.78926 222.395 4.93892C221.742 5.08858 221.265 5.42872 221.32 6.04096C221.401 7.02055 222.231 6.87089 222.871 6.76205C223.224 6.73417 223.553 6.5692 223.787 6.30233C224.021 6.03546 224.141 5.6878 224.122 5.33348Z" fill="black"/>
<path d="M10.2993 3.42874H10.9932L11.6735 4.09541H12.3537L13.0476 4.77568L13.7279 5.44235L14.3946 6.12262L15.0612 6.80289L15.7415 7.49677L16.4354 8.85731L17.1156 9.53758V10.2315C17.1156 10.4491 17.1156 10.6804 17.1156 10.9117V13.6328C16.6395 13.8641 16.6395 14.0818 17.1156 14.3131C17.1156 14.5444 17.1156 14.7757 17.1156 14.9934C16.3265 15.4968 16.4626 16.3539 16.4354 17.0614C15.4552 17.5279 14.4006 17.8181 13.3197 17.9185C12.5306 18.109 12.4082 17.6192 12.3265 17.0478C13.0884 17.0478 13.9048 17.1702 14.3946 16.3539C15.102 15.9049 15.102 15.4423 14.3946 14.9934C14.2397 14.7771 14.0354 14.6009 13.7988 14.4793C13.5622 14.3577 13.3 14.2943 13.034 14.2943C12.768 14.2943 12.5058 14.3577 12.2692 14.4793C12.0326 14.6009 11.8284 14.7771 11.6735 14.9934H8.95238L8.27211 15.66C7.65117 16.047 6.94686 16.2802 6.21769 16.3403V14.9798L6.91156 14.2859L7.60544 13.592C8.47619 12.8981 8.47619 12.2315 7.60544 11.524V10.1634C8.51247 9.48316 8.51247 8.80289 7.60544 8.12262H6.87075C6.73166 7.8912 6.5304 7.70347 6.28987 7.5808C6.04934 7.45813 5.7792 7.40544 5.5102 7.42874V6.8165L4.82993 6.13622L4.08163 5.45595H3.44218L2.72109 6.19065L2.04082 6.87092L1.36054 7.5648H0.707483L0 6.8165V6.13622C0.236002 6.00299 0.426836 5.8023 0.548037 5.5599C0.669239 5.3175 0.715284 5.04442 0.680272 4.77568C1.2208 4.88893 1.78374 4.81616 2.2777 4.56918C2.77167 4.3222 3.16765 3.91551 3.40136 3.41514H4.08163C4.35038 3.45015 4.62345 3.4041 4.86585 3.2829C5.10826 3.1617 5.30894 2.97087 5.44218 2.73486H8.92517C9.05736 2.97576 9.25939 3.17098 9.50467 3.29484C9.74996 3.41869 10.027 3.46537 10.2993 3.42874ZM14.8707 12.5988C13.5102 11.2383 12.068 11.7689 10.7891 11.7553C10.6481 11.7394 10.5053 11.7572 10.3725 11.8072C10.2397 11.8571 10.1206 11.9379 10.0251 12.0427C9.92948 12.1476 9.86012 12.2736 9.82265 12.4105C9.78518 12.5474 9.78068 12.6912 9.80952 12.8301C9.89116 13.5376 10.4626 13.6464 11.034 13.7008C12.3903 13.6961 13.7186 13.3145 14.8707 12.5988ZM12.2449 8.25867C11.6599 8.35391 10.7483 8.01377 10.5986 8.92534C10.449 9.8369 11.3333 10.1906 12.1497 10.2859C12.966 10.3811 13.9048 10.2859 13.8639 9.22466C13.8912 8.39473 13.034 8.29949 12.2449 8.25867ZM8.9932 4.85731C8.42177 4.85731 7.7551 4.97976 7.86395 5.72806C7.93003 6.06218 8.11904 6.35936 8.39362 6.56089C8.66819 6.76241 9.00837 6.85362 9.34694 6.8165C9.87755 6.8165 10.6258 6.89813 10.6258 6.13622C10.6395 5.11582 9.80952 4.95255 8.9932 4.85731Z" fill="black"/>
<path d="M111.157 22.6528H110.49C110.259 22.8705 110.027 23.0882 109.81 23.3195C109.048 23.3195 108.245 23.1971 107.742 23.9998H107.061C106.793 23.9648 106.519 24.0108 106.277 24.132C106.035 24.2532 105.834 24.4441 105.701 24.6801C105.433 24.657 105.165 24.7083 104.925 24.8284C104.684 24.9484 104.482 25.1325 104.34 25.3603H102.286L101.592 25.9998H97.5103C97.3683 25.772 97.166 25.5879 96.9259 25.4678C96.6858 25.3478 96.4172 25.2964 96.1497 25.3195L95.4694 24.6528H92.7484L92.0545 23.9726L91.3742 23.3195H90.0137C90.106 23.0487 90.2581 22.8022 90.4587 22.5982C90.6594 22.3942 90.9034 22.2381 91.1726 22.1414C91.4419 22.0447 91.7295 22.0098 92.0141 22.0395C92.2986 22.0691 92.5729 22.1625 92.8164 22.3127C93.7102 22.7944 94.7128 23.038 95.728 23.0202C98.898 22.3263 102.068 22.7481 105.252 22.6665C106.945 22.5546 108.615 22.216 110.218 21.6597C111.061 21.4148 111.578 20.3807 110.653 19.8365C108.64 18.6256 106.912 16.7073 104.435 16.5168C102.058 16.2921 99.664 16.3195 97.2926 16.5984C95.3878 16.8705 93.0613 17.129 92.7892 19.8909L91.3606 18.5304V17.8637L92.7212 17.1426C92.9524 16.925 93.1837 16.7073 93.4014 16.476L94.0953 15.7957C94.364 15.8307 94.6371 15.7847 94.8795 15.6635C95.1219 15.5423 95.3226 15.3514 95.4558 15.1154L96.1497 14.4488H97.5103L98.1905 13.8093H98.8708C99.6327 13.8093 100.435 13.9318 100.939 13.1562H101.606C102.34 14.1222 103.401 13.7413 104.327 13.8365H105.007L105.701 14.5168H106.381L107.075 15.2107C107.063 15.3925 107.09 15.5747 107.154 15.7452C107.218 15.9157 107.318 16.0706 107.447 16.1994C107.576 16.3282 107.73 16.4281 107.901 16.4922C108.071 16.5563 108.254 16.5832 108.435 16.5712L109.116 17.2379H109.782L110.49 17.9182C110.625 18.1516 110.826 18.3397 111.069 18.4584C111.311 18.5771 111.583 18.6211 111.85 18.5848H112.544C113.034 19.3739 113.905 19.2515 114.599 19.2651C114.599 19.7277 114.599 20.1767 114.599 20.6256H113.918L113.238 21.3059H112.544L111.864 21.959L111.157 22.6528Z" fill="black"/>
<path d="M218.939 22.6533C217.782 23.3472 216.381 23.6057 215.483 24.7213L212.054 28.1499L211.361 28.8302L210.68 29.524L210 30.1907L209.292 30.8574C209.066 30.8438 208.839 30.8438 208.612 30.8574C207.367 30.9906 206.181 31.461 205.184 32.2179C203.292 32.5717 201.565 31.5649 199.741 31.5785H198.381L197.673 30.8982C197.54 30.6622 197.34 30.4714 197.097 30.3502C196.855 30.229 196.582 30.1829 196.313 30.2179C196.095 30.2043 195.877 30.2043 195.66 30.2179L194.939 29.524L194.258 28.8438L193.578 28.1771C192.592 26.8061 191.142 25.8393 189.497 25.456L188.789 24.0955H189.469L190.163 23.4152H190.843H192.204C192.381 25.3336 193.565 25.8098 195.279 25.6193C196.997 25.2471 198.787 25.3939 200.422 26.041C198.68 27.4016 196.803 26.2859 195.456 27.0887C195.519 27.4023 195.665 27.6934 195.878 27.9324C196.09 28.1714 196.363 28.3497 196.667 28.4492C198.816 29.388 201.306 29.0479 203.469 30.2043C204.449 27.8098 206.367 29.2655 207.905 29.0887C208.408 29.0887 209.034 28.8302 209.034 28.0955C207.673 26.3812 205.347 27.4288 203.891 26.1091C204.511 25.7178 205.215 25.4799 205.946 25.4152C206.952 26.5445 208.286 26.0138 209.483 26.0819C210.68 26.1499 211.85 26.0819 211.701 24.7213C211.551 23.3608 210.204 24.1771 209.374 24.0274C208.921 23.9932 208.466 23.9932 208.014 24.0274C207.979 23.7587 208.025 23.4856 208.146 23.2432C208.267 23.0008 208.458 22.8001 208.694 22.6669C211.415 22.5036 214.136 23.6193 216.857 22.6669C217.497 22.2996 217.891 21.1703 218.912 21.9866L218.939 22.6533Z" fill="black"/>
<path d="M148.939 0.0136719H149.66C149.66 0.476257 149.66 0.925236 149.66 1.37422L148.98 2.04088L148.299 2.73476L147.619 3.41503L146.939 4.0953L146.258 4.77558C146.258 4.99326 146.258 5.22456 146.258 5.44224L145.592 6.13612C145.592 6.36741 145.592 6.59871 145.592 6.83C145.069 7.52384 144.786 8.36919 144.786 9.23816C144.786 10.1071 145.069 10.9525 145.592 11.6463C145.592 11.8776 145.592 12.0953 145.592 12.3266L146.272 13.0205C146.667 13.7416 146.871 14.6123 147.633 15.0749C147.864 15.2926 148.095 15.5239 148.313 15.7552L148.993 16.4354H149.66C149.973 17.5103 151.211 17.6191 151.741 18.4763C151.048 19.2926 150.381 18.245 149.673 18.4763C148.068 18.3674 146.463 16.8708 144.857 18.4763C144.05 17.9554 143.094 17.7119 142.136 17.7824H141.456C141.456 17.5511 141.456 17.3198 141.456 17.1021C142.517 16.6803 142.816 15.9048 142.054 15.1021C141.292 14.2994 141.048 15.2654 140.694 15.7552H140.054C140.054 15.5239 140.054 15.2926 140.054 15.0749L139.388 14.381V11.6599C139.619 11.5229 139.804 11.3206 139.92 11.0785C140.036 10.8364 140.078 10.5653 140.041 10.2994C140.041 9.8368 140.041 9.38782 140.041 8.93884C140.274 8.80371 140.462 8.60221 140.581 8.35995C140.7 8.1177 140.744 7.84562 140.707 7.5783C140.707 7.347 140.707 7.11571 140.707 6.89803L141.374 6.20415C141.374 5.98646 141.374 5.75517 141.374 5.52388L142.054 4.83L142.735 4.13612C142.952 3.90483 143.184 3.68714 143.415 3.45585L144.095 2.77558C144.313 2.54428 144.544 2.3266 144.775 2.0953H145.469L146.15 1.44224H146.939L147.619 0.761971H148.299L148.939 0.0136719Z" fill="black"/>
<path d="M90.5851 5.52388C90.5851 5.74156 90.5851 5.97286 90.5851 6.19054L91.2518 6.88442C91.2518 7.3334 91.2518 7.79598 91.2518 8.24496C91.2379 8.47151 91.2379 8.69869 91.2518 8.92524L91.8912 9.61911C91.8912 9.85041 91.8912 10.0817 91.8912 10.313C91.855 10.5803 91.899 10.8524 92.0177 11.0946C92.1364 11.3369 92.3244 11.5384 92.5579 11.6735V14.3946L91.9049 15.1021L91.2246 15.796C90.8164 15.1565 90.4355 14.1769 89.6736 15.4831C89.0341 16.5443 89.0205 18.2041 87.0749 17.8368C85.4441 17.7536 83.8128 17.9893 82.2722 18.5307C81.5919 18.2858 80.9117 19.3198 80.2178 18.5307V17.8504H80.9117L81.5919 17.1837C83.6872 16.5307 84.6532 14.762 85.6736 13.1021L86.3402 12.4082C86.3402 12.1769 86.3402 11.9592 86.3402 11.728L87.0069 11.0341C87.0069 10.5715 87.0069 10.1225 87.0069 9.67353C86.9117 8.72115 87.3334 7.64632 86.3266 6.95245C86.3266 6.72115 86.3266 6.48986 86.3266 6.27217L85.796 5.45585C85.796 5.22456 85.796 4.99326 85.796 4.77558L85.1021 4.0953L84.4219 3.40143L83.728 2.73476L82.9933 2.06809L82.3538 1.37422C82.3538 0.911631 82.3538 0.462651 82.3538 0.0136719H82.9933L83.6872 0.693944H84.3538L85.0477 1.36061H85.7416L86.4219 2.01367H87.1021L87.796 2.69394C88.0273 2.91163 88.2586 3.14292 88.4763 3.37422L89.1702 4.05449L89.8504 4.74837L90.5851 5.52388Z" fill="black"/>
<path d="M16.49 36.3807C16.49 36.612 16.49 36.8297 16.49 37.061L15.8097 37.7549C15.5747 37.6188 15.3833 37.4185 15.258 37.1776C15.1327 36.9366 15.0786 36.6649 15.1022 36.3943C13.524 34.4487 11.1975 34.4487 8.93898 36.3943C8.02742 36.3943 7.11585 37.1154 6.21789 36.3943C6.21789 36.1766 6.21789 35.959 6.21789 35.7413C6.48664 35.7763 6.75971 35.7302 7.00212 35.609C7.24452 35.4878 7.4452 35.297 7.57844 35.061C8.93898 34.9794 8.93898 33.9862 8.93898 32.993C8.93898 32.544 8.93898 32.0814 8.93898 31.6324C9.17469 31.4134 9.3627 31.1481 9.49126 30.8532C9.61982 30.5582 9.68618 30.2399 9.68618 29.9181C9.68618 29.5964 9.61982 29.2781 9.49126 28.9831C9.3627 28.6882 9.17469 28.4229 8.93898 28.2039C8.71182 28.0603 8.52752 27.8582 8.40543 27.6188C8.28334 27.3794 8.22795 27.1115 8.2451 26.8433L7.57844 26.163L6.89817 25.4692L6.21789 24.7889L5.44238 24.027C5.44238 23.7957 5.44238 23.578 5.44238 23.3467L6.13626 22.6664H7.4968C8.2315 23.646 9.27912 23.2515 10.2179 23.3059H11.5784L12.2451 22.6528H12.9118L16.3676 24.7209C16.3676 24.9522 16.3676 25.1698 16.3676 25.4011H15.7009L13.6329 26.095C13.4152 25.4828 13.2111 24.8569 12.9798 24.1766C12.109 24.6256 10.5308 24.3671 10.558 25.5372C10.558 27.0474 12.1771 26.7209 13.2791 26.7889H13.6193V27.4828C12.5308 27.6052 11.075 26.9794 10.8982 28.8433C12.3948 30.68 12.7893 30.7209 14.6397 29.1834C13.6548 28.8544 12.6132 28.7294 11.5784 28.8161C12.0002 27.9726 13.2383 28.3671 13.6465 27.4556C14.3676 27.0474 15.2383 26.8433 15.7281 26.095H16.3812C16.7665 26.7178 17.0039 27.4206 17.075 28.1494C17.075 28.8977 16.9526 29.7141 17.7553 30.2175V33.6324C16.9526 34.1222 17.0886 34.993 17.075 35.7004L16.49 36.3807ZM12.49 33.6596C13.5648 33.51 15.1295 33.9726 15.2111 32.7481C15.2927 31.1698 13.6465 31.6732 12.6261 31.6052C12.0722 31.5796 11.5184 31.658 10.9934 31.8365C10.8562 31.9198 10.7412 32.0351 10.6582 32.1725C10.5753 32.3099 10.5269 32.4654 10.5172 32.6256C10.5282 32.7854 10.5787 32.9398 10.6642 33.0752C10.7497 33.2106 10.8675 33.3226 11.007 33.4011C11.4911 33.538 11.9881 33.6247 12.49 33.6596Z" fill="black"/>
<path d="M16.4763 24.721L13.0205 22.6529C13.0205 22.4216 13.0205 22.2039 13.0205 21.9727H14.3811L15.0613 22.6529C17.7824 23.6053 20.5035 22.4897 23.2246 22.6529C23.4606 22.7862 23.6514 22.9868 23.7726 23.2293C23.8938 23.4717 23.9399 23.7447 23.9049 24.0135C22.466 23.9287 21.0222 24.02 19.6055 24.2856C21.347 26.408 22.762 26.6393 25.9865 25.4012L28.0273 26.0951C26.3674 27.3468 24.1089 26.7074 22.3674 27.9046C23.1021 29.2652 24.2586 29.1291 25.5511 28.925C25.9675 28.7722 26.4123 28.7124 26.8542 28.75C27.2961 28.7876 27.7244 28.9217 28.1089 29.1427C29.4695 30.2176 29.728 30.3944 30.3538 29.5237C30.9797 28.6529 31.7144 28.8706 32.4355 28.8842C33.1566 28.8978 33.6191 29.3468 34.0681 29.1971C35.0069 28.857 36.0953 28.272 35.8913 27.1155C35.6872 25.9591 34.7892 26.2312 33.9457 26.5169C33.1021 26.8026 32.4083 27.0475 31.6872 25.9046C33.4287 25.0203 35.2382 25.5373 36.9525 25.4284C37.0341 26.789 38.0545 26.789 39.0477 26.789C39.0477 27.0067 39.0477 27.238 39.0477 27.4693L38.3538 28.1495L37.6736 28.8298L36.9661 29.5101L35.6055 30.2176C35.3368 30.1825 35.0637 30.2286 34.8213 30.3498C34.5789 30.471 34.3782 30.6618 34.245 30.8978H33.5375L32.8708 31.5373H32.177C31.4151 31.5373 30.6123 31.4012 30.1089 32.1903H26.7076C26.5706 31.9594 26.3683 31.7741 26.1262 31.6579C25.884 31.5417 25.613 31.4997 25.347 31.5373H24.6532C24.518 31.3038 24.3165 31.1157 24.0743 30.997C23.832 30.8783 23.5599 30.8343 23.2926 30.8706H22.6123L21.9185 30.2039L21.2382 29.5373L20.5579 28.857C20.3266 28.6257 20.0953 28.408 19.8776 28.1767L19.1838 27.4965H18.5307L17.8232 26.789C17.8232 26.5713 17.8232 26.3536 17.8232 26.1223L17.143 25.442L16.4763 24.721Z" fill="black"/>
<path d="M142.054 17.8503C143.012 17.7798 143.968 18.0234 144.775 18.5442C146.381 20.8163 147.986 19.1972 149.592 18.5442C150.272 18.2993 150.952 19.3469 151.66 18.5442H153.741L154.449 19.2245C154.911 20.1224 155.36 21.034 155.809 21.9455C154.857 22.0272 153.796 21.619 153.088 22.6122C152.819 22.5905 152.55 22.6439 152.31 22.7664C152.069 22.8889 151.868 23.0758 151.728 23.3061L151.02 23.9864C150.798 23.9727 150.575 23.9727 150.353 23.9864L149.673 24.6666L149.006 25.3469L148.353 26.0136C148.339 26.2401 148.339 26.4673 148.353 26.6938L147.673 27.3877C147.437 27.521 147.246 27.7216 147.125 27.964C147.004 28.2064 146.958 28.4795 146.993 28.7483C146.993 28.966 146.993 29.1972 146.993 29.4149C146.775 29.6462 146.557 29.8911 146.326 30.1224C146.326 30.3537 146.326 30.5714 146.326 30.8027C145.537 31.3061 145.673 32.1632 145.646 32.8571C144.285 31.7142 144.109 31.6598 144.87 30.2721C144.997 30.0355 145.063 29.7715 145.063 29.5034C145.063 29.2352 144.997 28.9712 144.87 28.7347C145.261 28.1244 145.499 27.4291 145.564 26.7074C146.34 25.8639 148.095 25.7415 147.632 23.9864C148.245 23.4694 149.741 23.4421 149.156 22.2993C148.748 21.4966 147.796 22.2993 147.034 22.5714C146.587 22.7134 146.201 23.0009 145.937 23.3882C145.673 23.7754 145.547 24.2399 145.578 24.7074C144.53 25.5102 144.095 24.4217 143.442 24.0136C144.027 21.2925 143.687 20.8027 141.088 20.6258C139.85 20.5442 138.585 20.6258 137.333 20.6258C137.478 20.4012 137.681 20.2196 137.92 20.0999C138.16 19.9803 138.427 19.927 138.694 19.9455H139.319L140.68 18.585H142.04C142.136 18.9115 142.245 18.966 142.299 18.7483C142.353 18.5306 142.122 18.653 142.027 18.5986L142.054 17.8503Z" fill="black"/>
<path d="M126.966 13.7419H127.646C127.912 13.7663 128.18 13.7171 128.42 13.5995C128.66 13.4819 128.863 13.3005 129.007 13.0752H131.048C131.048 13.3065 131.048 13.5378 131.048 13.7555C128.871 13.7555 129.388 15.2112 129.687 16.4766C126.531 15.8235 124.476 18.1636 121.987 19.3337C121.361 19.6194 120.789 20.1228 121.061 20.9119C121.176 21.2375 121.396 21.5152 121.687 21.7002C121.978 21.8853 122.323 21.9671 122.667 21.9323C124.123 21.9822 125.565 22.234 126.952 22.6806C126.952 23.633 127.524 24.0412 128.422 24.0412C129.524 24.0412 129.197 24.7487 129.021 25.4017H127.66C127.527 25.1657 127.326 24.9749 127.084 24.8537C126.841 24.7325 126.568 24.6864 126.299 24.7215H125.633L124.939 24.0548H124.259C123.755 23.2521 122.898 23.4017 122.191 23.3745L121.524 22.7215H120.83L120.136 22.0412H119.469L118.762 21.3745L118.082 20.6942H117.401L116.721 20.0004C116.939 19.7691 117.17 19.5378 117.401 19.3201C117.669 19.3447 117.938 19.2941 118.179 19.1739C118.419 19.0537 118.621 18.8687 118.762 18.6398H120.123L120.816 17.9868H121.497L122.191 17.3201H122.857C123.089 17.1024 123.32 16.8847 123.538 16.6534L124.218 15.9732L124.898 15.2929L125.592 14.599C125.883 14.6222 126.173 14.5515 126.42 14.3972C126.668 14.2428 126.859 14.0131 126.966 13.7419Z" fill="black"/>
<path d="M88.5576 23.9999H89.2243L89.9046 24.7074C89.9046 24.9251 89.9046 25.1564 89.9046 25.3741C90.1223 25.6054 90.3399 25.8367 90.5712 26.0544L91.2515 26.7618C91.2515 27.2244 91.2515 27.6734 91.2515 28.1224C91.2515 29.0339 91.2515 29.9455 91.2515 30.8435C91.3603 33.3605 89.4012 34.3945 87.7957 35.687L87.1154 36.3401H86.4352C86.2938 36.1108 86.0921 35.9248 85.8521 35.8025C85.6122 35.6801 85.3432 35.626 85.0746 35.6462V34.9659C85.3106 34.8327 85.5015 34.632 85.6227 34.3896C85.7439 34.1472 85.7899 33.8741 85.7549 33.6054V30.204C85.9862 30.204 86.2039 30.204 86.5576 31.5646C86.9114 32.9251 87.1427 32.6938 87.2379 32.5305C87.6461 31.8639 88.0542 31.17 87.3603 30.4489C87.2243 30.3129 86.8569 30.1496 86.7753 30.2176C86.1359 30.7482 86.5168 31.4829 86.4624 32.136C86.4624 32.3945 86.5984 32.6802 86.5576 31.5646C86.5134 30.596 86.7147 29.6319 87.1427 28.7618C87.9454 28.6394 89.1699 29.2108 89.4556 28.1768C89.7413 27.1428 88.7073 26.4897 87.7549 26.1496C87.3084 26.0517 86.8507 26.0151 86.3944 26.0407C84.8706 26.1904 84.1495 25.5237 84.2991 23.9863H86.3263C87.1427 25.4285 87.8501 25.4149 88.5576 23.9999Z" fill="black"/>
<path d="M201.755 10.9796C201.823 10.5306 202.53 10.068 201.755 9.61905C201.755 9.38775 201.755 9.15646 201.755 8.93878H204.476C204.952 9.53741 205.564 9.83673 206.163 9.2381C206.762 8.63946 206.462 8.02721 205.864 7.55102C205.864 7.33333 205.864 7.10204 205.864 6.87075C205.632 5.72789 205.415 4.58503 205.183 3.44218C205.417 3.30704 205.605 3.10554 205.724 2.86329C205.842 2.62103 205.886 2.34896 205.85 2.08163C205.85 1.85034 205.85 1.61905 205.85 1.38775L206.544 0.693877L207.238 0H212.013C212.245 0.231293 212.476 0.462585 212.721 0.680272C212.939 2.04082 212.163 3.60544 213.401 4.7619C213.183 5.44218 212.952 6.12245 212.721 6.81633H211.36C211.251 6.01361 212.231 5.0068 211.646 4.58503C210.707 3.90476 210.163 2.95238 209.333 2.27211C209.172 2.14939 208.985 2.06429 208.786 2.02304C208.588 1.98178 208.383 1.98541 208.186 2.03367C207.989 2.08192 207.805 2.17357 207.648 2.30192C207.491 2.43027 207.365 2.59208 207.279 2.77551C206.612 3.87755 206.013 4.9932 207.279 6.13605C207.279 6.36735 207.279 6.59864 207.279 6.82993L207.945 7.5102V8.19048C207.673 9.82313 208.789 10.4218 210.013 10.9116C210.013 11.1429 210.013 11.3741 210.013 11.6054C209.282 11.6527 208.574 11.8869 207.959 12.2857C206.449 9.36054 204.081 10.3946 201.755 10.9796Z" fill="black"/>
<path d="M24.0138 12.3673C23.7065 12.2449 23.4274 12.0611 23.1935 11.8271C22.9596 11.5932 22.7758 11.3141 22.6533 11.0068L23.3472 9.64626L24.0138 8.95238C24.0138 8.4898 24.0138 8.04082 24.0138 7.59184L24.6941 6.89796C24.6941 6.68027 24.6941 6.44898 24.6941 6.21769C24.913 6.06469 25.0918 5.86111 25.2152 5.62425C25.3387 5.38739 25.4031 5.12424 25.4031 4.85714C25.4031 4.59005 25.3387 4.3269 25.2152 4.09003C25.0918 3.85317 24.913 3.6496 24.6941 3.4966C24.6941 3.26531 24.6941 3.03401 24.6941 2.80272L24.0274 2.13605C22.49 1.90476 21.7689 2.59864 21.973 4.09524C21.2655 4.31292 19.6601 3.61905 20.6125 5.45578C20.6125 5.68707 20.6125 5.90476 20.6125 6.12245L19.905 6.81633H19.2383C19.2585 6.54773 19.2044 6.27877 19.082 6.03882C18.9597 5.79888 18.7737 5.59718 18.5444 5.45578V4.77551C19.4152 4.09524 19.4152 3.41497 18.5444 2.70748V1.37415L19.2247 0.680272L19.9186 0H24.0002L24.6941 0.666667H25.3744L26.0546 1.34694C26.0546 1.57823 26.0546 1.79592 26.0546 2.02721C26.0196 2.29595 26.0657 2.56903 26.1869 2.81143C26.3081 3.05384 26.4989 3.25452 26.7349 3.38775V4.09524C26.2542 4.322 26.2542 4.55329 26.7349 4.78911V5.45578C26.4989 5.58902 26.3081 5.7897 26.1869 6.0321C26.0657 6.27451 26.0196 6.54758 26.0546 6.81633L25.388 7.4966V8.19048C24.9254 8.40816 24.9254 8.63946 25.388 8.87075L26.0818 9.53741C26.3492 9.5737 26.6212 9.52969 26.8635 9.41099C27.1058 9.29228 27.3073 9.10424 27.4424 8.87075H30.1635C30.1635 9.08844 30.1635 9.31973 30.1635 9.55102C29.3744 10 30.0955 10.4626 30.1635 10.9116C29.6291 10.9426 29.093 10.8968 28.5716 10.7755C28.179 10.5287 27.7358 10.3735 27.275 10.3213C26.8141 10.2692 26.3475 10.3216 25.9096 10.4745C25.4718 10.6274 25.074 10.877 24.7458 11.2047C24.4176 11.5323 24.1674 11.9297 24.0138 12.3673Z" fill="black"/>
<path d="M84.3538 24.0407C84.2041 25.5782 84.9252 26.2448 86.449 26.0952C86.3472 27.0541 86.5882 28.0181 87.1293 28.8162C86.8844 29.2788 86.6531 29.7414 86.4218 30.1768H85.7143L85.0612 29.4693C85.0612 29.2516 85.0612 29.0203 85.0612 28.8026L84.3946 28.0952C84.4082 27.8731 84.4082 27.6505 84.3946 27.4285L83.7279 26.7346L83.0068 25.3741L82.3402 24.6938L81.6599 24.0135H80.9932L80.2857 23.3333H79.6327L78.9252 22.653C78.1905 21.6598 77.1157 22.068 76.2041 21.9863C76.2041 21.2244 77.6871 20.9659 76.8708 19.9319C76.8708 19.7142 76.8708 19.4829 76.8708 19.2516H77.551H77.8912H78.2313C79.3061 20.3128 79.4694 19.4829 79.5919 18.5986H80.2721C80.9524 19.4013 81.6327 18.3673 82.3266 18.5986C82.3266 18.8163 82.3266 19.0475 82.3266 19.2788C81.9456 20.2584 80.2857 19.6598 80.0817 21.3333H84.3538V22.0407C83.7415 22.136 82.8436 21.7414 82.6531 22.6802C82.517 23.3469 83.3061 23.4829 83.7551 23.7822C83.9451 23.889 84.1458 23.9757 84.3538 24.0407Z" fill="black"/>
<path d="M144.789 28.8163C144.915 29.0529 144.981 29.3169 144.981 29.585C144.981 29.8532 144.915 30.1172 144.789 30.3537C144.027 31.7143 144.136 31.7959 145.564 32.9388H146.231V34.2993C146.047 34.4312 145.836 34.5196 145.613 34.5579C145.39 34.5963 145.161 34.5835 144.943 34.5207C144.726 34.4578 144.526 34.3465 144.358 34.195C144.189 34.0435 144.058 33.8559 143.973 33.6463C143.661 33.0503 143.203 32.5438 142.641 32.1747C142.079 31.8056 141.432 31.5862 140.762 31.5374C140.762 30.7891 140.871 29.9728 140.068 29.4694C140.081 29.2474 140.081 29.0247 140.068 28.8027C140.297 28.6619 140.482 28.4598 140.602 28.2194C140.722 27.979 140.773 27.7098 140.748 27.4422C140.748 27.2109 140.748 26.9932 140.748 26.7619L141.428 26.0544L142.081 25.3878V24.6939L142.748 24H143.401C144.054 24.4082 144.49 25.4966 145.537 24.6939C146.149 24.3115 146.845 24.0828 147.564 24.0272C148.027 25.8095 146.204 25.932 145.496 26.7483C143.755 26.3265 142.286 26.7483 142.408 27.8503C142.558 29.4558 143.945 28.585 144.789 28.8163Z" fill="black"/>
<path d="M231.959 32.272V35.6869L231.265 36.3808L230.571 37.0611H229.932C229.609 37.0676 229.294 37.164 229.022 37.3394C228.751 37.5148 228.533 37.7624 228.395 38.0543C228.21 38.3852 227.939 38.66 227.611 38.8492C227.283 39.0385 226.909 39.1352 226.531 39.1291C226.286 38.2176 226.054 37.2924 225.81 36.408C226.558 36.408 227.347 36.5441 227.837 35.755H228.571L229.252 35.0747L229.946 34.3944C230.179 34.2593 230.367 34.0578 230.486 33.8155C230.605 33.5733 230.649 33.3012 230.612 33.0339C230.612 32.8026 230.612 32.5849 230.612 32.3536L231.959 32.272Z" fill="black"/>
<path d="M1.36054 32.2856C1.36054 32.9659 1.36054 33.6462 1.36054 34.3265C1.57823 34.5578 1.80952 34.7754 2.02721 34.9931C2.25376 35.0069 2.48093 35.0069 2.70748 34.9931L3.40136 35.6734H4.08163C4.57143 36.4625 5.44218 36.3401 6.12245 36.3265L5.41497 39.0476C5.19358 39.0202 4.96968 39.0202 4.7483 39.0476H4.06803H4.08163L3.38775 38.3537C3.407 38.1703 3.38503 37.9849 3.32347 37.8111C3.2619 37.6373 3.16228 37.4794 3.03189 37.349C2.90149 37.2186 2.74362 37.119 2.5698 37.0574C2.39598 36.9958 2.21061 36.9739 2.02721 36.9931H1.36054L0.653061 36.3129L0 35.687C0 35.4557 0 35.238 0 35.0067C0 34.0952 0 33.1836 0 32.2856H1.36054Z" fill="black"/>
<path d="M219.605 17.1701C221.898 16.9655 224.209 17.2104 226.408 17.8912C226.408 18.0953 226.408 18.313 226.408 18.5307C224.354 18.8164 222.163 17.8912 220.231 19.2245C218.612 19.1896 216.998 19.424 215.456 19.9184C215.456 19.0068 215.456 18.0953 215.456 17.1973C216.871 17.3334 218.245 19.415 219.605 17.1701Z" fill="black"/>
<path d="M14.4355 21.9589H13.075L12.3811 21.2514C12.1543 20.7888 11.9231 20.7888 11.6872 21.2514H11.007C10.7802 20.7888 10.5489 20.7888 10.3131 21.2514H6.23145V19.8909H9.67362C10.4219 19.8909 11.211 20.0541 11.7008 19.2378C13.1974 20.1085 14.9253 19.3875 16.4763 19.9181C16.1906 20.9929 14.9661 21.1153 14.4355 21.9589Z" fill="black"/>
<path d="M11.6733 40.5031H6.87061C6.89098 40.2859 6.89098 40.0673 6.87061 39.8501C7.82299 39.7004 8.92503 40.1494 9.59169 39.129C10.2175 39.0338 10.9522 39.3739 11.306 38.4759C11.306 38.3399 11.1835 38.027 11.0475 37.9589C10.7901 37.8323 10.4938 37.8098 10.2201 37.8959C9.9465 37.982 9.71657 38.1703 9.57809 38.4215C9.19714 38.4895 8.74816 39.0338 8.46244 38.5168C8.17673 37.9997 8.78897 37.5508 8.93863 37.0474H14.3808V38.4079C14.3808 38.6392 14.3808 38.8705 14.3808 39.1018C14.112 39.0801 13.8425 39.1335 13.6022 39.256C13.362 39.3785 13.1605 39.5653 13.0203 39.7957C12.7523 39.7779 12.4847 39.8346 12.247 39.9594C12.0093 40.0843 11.8108 40.2725 11.6733 40.5031Z" fill="black"/>
<path d="M215.497 17.1837C215.497 18.0952 215.497 19.0068 215.497 19.9048C212.435 19.3469 211.32 17.1021 210.694 14.4626L211.388 13.1021L212.082 13.7959C212.299 14.0272 212.531 14.2585 212.762 14.4762C212.795 15.1872 213.092 15.8602 213.596 16.3635C214.099 16.8668 214.772 17.1642 215.483 17.1973L215.497 17.1837Z" fill="black"/>
<path d="M20.5986 13.0479C20.8299 13.4968 21.0476 13.9594 21.2789 14.4084C21.1421 15.6997 20.608 16.9167 19.7502 17.8915C18.8924 18.8662 17.7531 19.5508 16.4897 19.8506C16.4897 18.939 16.4897 18.041 16.4897 17.1295C16.7599 17.1632 17.034 17.1152 17.2766 16.9915C17.5191 16.8678 17.719 16.6741 17.8503 16.4356L18.5442 15.7553C18.7802 15.6221 18.971 15.4214 19.0922 15.179C19.2134 14.9366 19.2595 14.6635 19.2244 14.3948L19.9047 13.7145L20.5986 13.0479Z" fill="black"/>
<path d="M129.714 16.4765C129.429 15.1839 128.912 13.7554 131.075 13.7554H132.435C132.666 13.7757 132.898 13.7757 133.129 13.7554C133.342 13.7692 133.556 13.7692 133.769 13.7554L134.503 14.3948L135.197 16.4356L129.714 16.4765Z" fill="black"/>
<path d="M140.694 31.5781C141.364 31.627 142.011 31.8463 142.573 32.2154C143.135 32.5845 143.593 33.091 143.905 33.687C143.99 33.8966 144.121 34.0843 144.29 34.2357C144.458 34.3872 144.658 34.4985 144.876 34.5614C145.093 34.6242 145.322 34.637 145.545 34.5986C145.768 34.5603 145.979 34.4719 146.163 34.34L146.83 35.0611C146.816 35.2741 146.816 35.4876 146.83 35.7006C146.562 35.6877 146.296 35.7449 146.057 35.8666C145.819 35.9883 145.616 36.1703 145.469 36.3944H144.83C144.685 36.1698 144.482 35.9882 144.242 35.8686C144.003 35.7489 143.736 35.6956 143.469 35.7142L142.775 35.0203L142.082 34.3264L141.401 33.6325L140.721 32.9387C140.735 32.7212 140.735 32.5031 140.721 32.2856C140.667 32.0407 140.68 31.8094 140.694 31.5781Z" fill="black"/>
<path d="M135.197 16.4764L134.503 14.4355H135.864L136.571 15.1022H137.238L137.946 15.7825L138.626 16.4628L139.306 17.1294C139.915 17.3956 140.401 17.8814 140.667 18.49L139.306 19.8505C139.143 17.2927 136.776 17.3471 135.197 16.4764Z" fill="black"/>
<path d="M31.5644 23.3606C30.6392 24.5443 28.2991 23.9593 28.1358 26.0817L26.095 25.3878L24.0133 24.0273C24.0484 23.7585 24.0023 23.4855 23.8811 23.2431C23.7599 23.0007 23.5691 22.8 23.3331 22.6667C23.3187 22.1013 23.1285 21.5544 22.7889 21.1021C22.3943 20.5987 22.2174 20.0953 23.1018 19.9185C24.9657 19.5375 25.0882 17.6463 26.0814 16.5171C26.0814 17.4287 26.5576 17.5375 27.3739 17.3198C28.1902 17.1021 28.7344 17.6736 28.8161 18.5851C28.5895 18.5987 28.3623 18.5987 28.1358 18.5851C27.8041 18.5035 27.4586 18.4942 27.123 18.5579C26.7874 18.6215 26.4694 18.7567 26.1906 18.9542C25.9118 19.1516 25.6788 19.4068 25.5073 19.7023C25.3359 19.9978 25.2301 20.3267 25.197 20.6667C25.0065 22.0273 26.1902 22.6259 27.1426 23.1021C27.6323 23.3995 28.2058 23.5286 28.7757 23.4696C29.3456 23.4106 29.8806 23.1669 30.2991 22.7756C31.5644 21.4967 30.2991 20.5715 29.6596 19.5783L29.5099 19.279L30.2038 18.5851C30.8977 19.0341 31.5644 19.4967 32.2582 19.9457C32.7208 20.7212 33.6188 20.898 34.2991 21.3062V21.9865C33.5235 22.6123 32.231 22.3946 31.5644 23.3606Z" fill="black"/>
<path d="M32.2583 19.9185H37.7005V20.5443C36.544 20.7756 35.2243 20.1361 34.2583 21.2518C33.578 20.8708 32.7209 20.694 32.2583 19.9185Z" fill="black"/>
<path d="M30.2041 17.8638V18.544C29.7415 18.3127 29.7279 18.0815 30.2041 17.8638Z" fill="black"/>
<path d="M205.877 16.4897C206.843 17.1836 206.68 18.5306 207.646 19.2925C209.333 20.653 209.292 20.7619 208.626 22.653C208.39 22.7862 208.199 22.9869 208.078 23.2293C207.956 23.4717 207.91 23.7448 207.945 24.0136L205.877 25.3741C205.147 25.4388 204.443 25.6767 203.823 26.068C203.66 23.9183 201.32 24.517 200.394 23.3469C199.728 22.3673 198.435 22.6122 197.673 21.9183V21.2517C198.394 20.8571 199.252 20.6802 199.714 19.8911C200.177 19.102 201.075 18.9251 201.769 18.5306L202.476 19.238C202.062 19.7668 201.689 20.3262 201.36 20.9115C201.24 21.1064 201.167 21.3267 201.147 21.5549C201.127 21.783 201.161 22.0126 201.246 22.2254C201.33 22.4382 201.464 22.6283 201.635 22.7805C201.806 22.9327 202.01 23.0428 202.231 23.102C202.792 23.3783 203.427 23.4692 204.043 23.3616C204.659 23.254 205.225 22.9535 205.66 22.5034C206.245 21.9047 207.17 21.4557 206.735 20.2857C206.554 19.6874 206.157 19.1778 205.622 18.8559C205.086 18.534 204.45 18.4229 203.837 18.5442H203.156C203.156 17.619 203.605 17.0204 204.599 17.2789C205.592 17.5374 205.85 17.4013 205.877 16.4897Z" fill="black"/>
<path d="M194.218 19.9316H199.66C199.197 20.7072 198.299 20.884 197.619 21.2922C196.653 20.1765 195.333 20.8024 194.19 20.5847C194.218 20.4214 194.218 20.1493 194.218 19.9316Z" fill="black"/>
<path d="M202.449 15.8095C203.211 15.8095 204.014 15.6734 204.517 16.4762C203.755 16.4626 202.953 16.5986 202.449 15.8095Z" fill="black"/>
<path d="M201.755 18.5304V17.8638C202.027 17.959 202.136 18.1223 202.027 18.34C201.918 18.5576 201.85 18.476 201.755 18.5304Z" fill="black"/>
<path d="M210 14.4085L209.292 13.769L210 14.4085Z" fill="black"/>
<path d="M210 12.3677C210 12.4629 209.878 12.6398 209.837 12.6398C209.796 12.6398 209.674 12.4765 210 12.3677Z" fill="black"/>
<path d="M210 11.6733H210.68V12.3672H210V11.6733Z" fill="black"/>
<path d="M222.993 37.0475V36.3809C223.905 36.3809 224.816 37.1019 225.714 36.3809C225.959 37.2924 226.19 38.2176 226.435 39.1019V39.755L225.075 39.823C223.864 39.3468 223.619 38.1087 222.993 37.0475Z" fill="black"/>
<path d="M222.055 38.286C221.987 38.4629 221.973 38.7622 221.85 38.8166C221.755 38.8594 221.652 38.8828 221.547 38.8854C221.443 38.888 221.339 38.8698 221.241 38.8318C221.144 38.7938 221.055 38.7368 220.979 38.6642C220.904 38.5915 220.844 38.5046 220.803 38.4084C220.653 38.1635 220.721 37.9731 220.993 37.8914C221.187 37.8106 221.405 37.8064 221.602 37.8797C221.799 37.9529 221.96 38.0981 222.055 38.286Z" fill="black"/>
<path d="M219.551 8.24521C220.231 8.36766 221.347 8.00032 221.306 9.15678C221.306 10.0411 220.34 10.2996 219.497 10.2452C218.653 10.1908 217.796 9.98671 217.891 8.97991C217.986 7.97311 218.884 8.29964 219.551 8.24521Z" fill="black"/>
<path d="M6.19043 18.531L6.89791 17.1704H9.619H12.3401C12.4217 17.7418 12.5442 18.2316 13.3333 18.0412C14.4141 17.9407 15.4688 17.6506 16.4489 17.184V19.9051C14.8979 19.3745 13.17 20.0956 11.6734 19.2248C11.17 18.4221 10.3129 18.5446 9.6054 18.531C9.3605 18.082 9.1292 18.082 8.88431 18.531H6.19043Z" fill="black"/>
<path d="M12.2448 8.25869C12.9795 8.25869 13.8366 8.39475 13.8638 9.18386C13.8638 10.2315 12.9523 10.2995 12.1495 10.2451C11.3468 10.1907 10.4488 9.95937 10.5985 8.88455C10.7482 7.80972 11.7142 8.35393 12.2448 8.25869Z" fill="black"/>
<path d="M91.3059 15.8096C91.3059 16.0409 91.3059 16.2586 91.3059 16.4762L90.6528 17.1701C90.027 17.5375 89.4691 18.1905 89.8229 18.7892C90.1766 19.3878 90.7889 18.5987 91.2923 18.5035L92.7208 19.864H93.3603L94.0542 20.5579C92.7242 20.5031 91.3919 20.544 90.0678 20.6803C88.1358 20.9796 87.8637 21.7279 88.5984 23.9728C87.8909 25.3334 87.2378 25.4014 86.4759 23.9728C86.2174 22.898 84.9657 22.8028 84.4487 21.9592V21.2518L85.1426 19.8912C85.4187 19.9163 85.6969 19.8803 85.9575 19.786C86.2182 19.6916 86.4549 19.5411 86.6509 19.345C86.8469 19.149 86.9974 18.9123 87.0918 18.6517C87.1862 18.3911 87.2221 18.1129 87.197 17.8368C89.1426 18.2313 89.1562 16.5443 89.7957 15.483C90.5168 14.1905 90.8977 15.1701 91.3059 15.8096Z" fill="black"/>
<path d="M94.0137 20.585L93.3198 19.8911C94.6804 18.5305 96.6123 19.1564 98.1906 19.0067C100.572 18.7618 103.034 18.8435 105.456 18.6394C105.841 18.6116 106.223 18.7246 106.531 18.9573C106.838 19.1901 107.051 19.5268 107.129 19.9047C102.746 19.7343 98.356 19.962 94.0137 20.585Z" fill="black"/>
<path d="M216.843 22.6532C216.98 21.4424 215.864 20.8709 215.483 19.9321C217.025 19.4378 218.639 19.2033 220.258 19.2383C221.769 20.4083 223.796 19.4696 225.769 20.49C225.257 20.8869 224.657 21.1538 224.019 21.2675C223.382 21.3813 222.726 21.3386 222.109 21.143C220.939 20.9934 219.605 20.3539 218.898 21.9866C217.877 21.1566 217.483 22.2859 216.843 22.6532Z" fill="black"/>
<path d="M200.394 23.3604H192.231H190.871C191.14 23.0641 191.485 22.8459 191.868 22.7286C192.251 22.6112 192.658 22.5992 193.047 22.6937C194.635 22.7483 196.218 22.5037 197.714 21.9727C198.435 22.6257 199.728 22.3808 200.394 23.3604Z" fill="black"/>
<path d="M189.401 24.027L190.095 23.3467L189.401 24.027Z" fill="black"/>
<path d="M140.64 15.8228C140.98 15.3331 141.252 14.4623 142 15.1698C142.748 15.8773 142.463 16.748 141.402 17.1698L140.735 16.4895C140.717 16.2655 140.685 16.0428 140.64 15.8228Z" fill="black"/>
<path d="M8.92522 36.3811V37.0478C8.77556 37.5512 8.16331 37.9865 8.44903 38.5172C8.73474 39.0478 9.18372 38.5172 9.56468 38.4219C9.56468 38.6668 9.56468 38.8981 9.56468 39.1294C8.84359 40.1498 7.74155 39.7008 6.84359 39.8505H6.19053C5.96397 39.8369 5.73681 39.8369 5.51025 39.8505C5.51025 39.6328 5.51025 39.4151 5.51025 39.211C5.74155 38.2859 5.98644 37.3607 6.21774 36.4899C7.10209 37.1022 8.01365 36.3539 8.92522 36.3811Z" fill="black"/>
<path d="M11.6734 28.8028H10.9932C11.1972 26.9388 12.653 27.5647 13.7143 27.4422C13.3333 28.3538 12.0952 27.9592 11.6734 28.8028Z" fill="black"/>
<path d="M13.728 26.7755C13.728 26.5442 13.728 26.3265 13.728 26.0952L15.796 25.4014C15.7824 25.6234 15.7824 25.846 15.796 26.068C15.3062 26.8435 14.4354 27.0476 13.7144 27.4286L13.728 26.7755Z" fill="black"/>
<path d="M14.4355 21.9727L15.1158 22.6529L14.4355 21.9727Z" fill="black"/>
<path d="M137.279 20.5713C133.197 19.4965 129.02 20.1632 124.789 19.7958C124.996 19.3587 125.342 19.0019 125.772 18.7806C126.203 18.5593 126.694 18.4858 127.17 18.5713C131.007 18.9251 134.939 18.4081 138.653 19.9319C138.388 19.9065 138.121 19.9524 137.879 20.0648C137.637 20.1772 137.43 20.3521 137.279 20.5713Z" fill="black"/>
<path d="M144.789 28.8165C143.946 28.5852 142.558 29.4559 142.395 27.8913C142.272 26.8301 143.755 26.3675 145.483 26.7893C145.418 27.5109 145.18 28.2062 144.789 28.8165Z" fill="black"/>
<path d="M147.551 24.0407C146.831 24.0962 146.136 24.3249 145.524 24.7073C145.502 24.2539 145.629 23.8058 145.884 23.4304C146.139 23.055 146.509 22.7726 146.939 22.6257C147.646 22.3264 148.653 21.5509 149.061 22.3536C149.66 23.4965 148.163 23.5237 147.551 24.0407Z" fill="black"/>
<path d="M126.979 22.6802H131.769C133.096 23.3203 134.263 24.2502 135.184 25.4013C134.449 25.4013 133.633 25.3196 133.129 26.0951H131.088C130.949 25.8667 130.746 25.6842 130.504 25.5704C130.262 25.4567 129.992 25.4168 129.728 25.4557L129.061 25.3877C129.238 24.7618 129.565 24.0271 128.462 24.0271C127.551 24.0135 127.007 23.6326 126.979 22.6802Z" fill="black"/>
<path d="M87.1836 28.8164C86.6425 28.0182 86.4015 27.0542 86.5033 26.0953C86.9596 26.0697 87.4174 26.1063 87.8638 26.2042C88.8162 26.5443 89.8774 27.143 89.5645 28.2314C89.2516 29.3198 87.9863 28.694 87.1836 28.8164Z" fill="black"/>
<path d="M84.3534 21.9867C84.8704 22.8302 86.1221 22.9254 86.3807 24.0003H84.3534C84.1432 23.9179 83.9425 23.8129 83.7548 23.6873C83.3058 23.388 82.5167 23.252 82.6528 22.5853C82.8977 21.6873 83.7956 22.0819 84.3534 21.9867Z" fill="black"/>
<path d="M86.7346 33.0475C86.6076 32.7776 86.5293 32.4875 86.5033 32.1903C86.5033 31.5373 86.1768 30.8298 86.8162 30.272C86.8978 30.272 87.2652 30.3672 87.4012 30.5033C88.0951 31.2244 87.687 31.8638 87.2788 32.5849C87.1836 32.7482 86.9659 32.857 86.7346 33.0475Z" fill="black"/>
<path d="M82.3675 19.2241C83.3062 19.333 84.3811 18.9112 85.0885 19.9044L84.3947 21.2649H80.1226C80.2722 19.6051 81.9865 20.2037 82.3675 19.2241Z" fill="black"/>
<path d="M78.2314 19.2106C78.2314 18.9793 78.2314 18.7616 78.2314 18.5439H79.592C79.4695 19.4419 79.3063 20.2718 78.2314 19.2106Z" fill="black"/>
<path d="M9.61914 39.1293C9.61914 38.898 9.61914 38.6667 9.61914 38.4218C9.75762 38.1706 9.98755 37.9824 10.2612 37.8962C10.5348 37.8101 10.8311 37.8326 11.0885 37.9592C11.2246 38.0273 11.4015 38.3402 11.347 38.4762C11.0477 39.3742 10.245 39.0341 9.61914 39.1293Z" fill="black"/>
<path d="M135.184 25.3876C134.263 24.2365 133.096 23.3067 131.769 22.6665C134.367 22.3808 137.034 23.4148 139.632 22.0815C140.571 21.5917 141.564 22.2584 142.041 23.3332H140.68L140.013 23.9863C139.782 24.204 139.564 24.4353 139.333 24.6665H136.612L135.932 25.3332H135.224L135.184 25.3876Z" fill="black"/>
<path d="M22.3264 17.415C22.2838 17.3806 22.2494 17.337 22.2258 17.2876C22.2022 17.2382 22.1899 17.1841 22.1899 17.1293C22.1899 17.0745 22.2022 17.0204 22.2258 16.971C22.2494 16.9215 22.2838 16.878 22.3264 16.8436C22.4033 16.767 22.5041 16.719 22.6121 16.7075C22.8978 16.7075 23.0339 16.8844 22.8978 17.1157C22.7618 17.347 22.5033 17.3198 22.3264 17.415Z" fill="black"/>
<path d="M208.966 16.5439L209.496 16.8161C209.32 16.9113 209.156 17.0882 208.979 17.1018C208.803 17.1154 208.639 16.9249 208.462 16.8433L208.966 16.5439Z" fill="black"/>
</svg>
